{
  "accessors": [
    {
      "bufferView": 2,
      "componentType": 5126,
      "count": 2906,
      "max": [
        0.4975409507751465,
        0.5012038350105286,
        0.7323553562164307
      ],
      "min": [
        -0.49754178524017334,
        -0.501203715801239,
        0.6823553442955017
      ],
      "type": "VEC3"
    },
    {
      "bufferView": 2,
      "byteOffset": 34872,
      "componentType": 5126,
      "count": 2906,
      "max": [
        0.9927441477775574,
        0.9910708069801331,
        1.0
      ],
      "min": [
        -0.9927405118942261,
        -0.9915907382965088,
        -1.0
      ],
      "type": "VEC3"
    },
    {
      "bufferView": 3,
      "componentType": 5126,
      "count": 2906,
      "max": [
        1.0,
        0.9580435156822205,
        0.998062014579773,
        1.0
      ],
      "min": [
        -1.0,
        -0.9346079230308533,
        -0.9966015219688416,
        -1.0
      ],
      "type": "VEC4"
    },
    {
      "bufferView": 1,
      "componentType": 5126,
      "count": 2906,
      "max": [
        0.995123028755188,
        0.8976051807403564
      ],
      "min": [
        0.004877055529505014,
        0.004877055529505014
      ],
      "type": "VEC2"
    },
    {
      "bufferView": 0,
      "componentType": 5125,
      "count": 13392,
      "type": "SCALAR"
    },
    {
      "bufferView": 2,
      "byteOffset": 69744,
      "componentType": 5126,
      "count": 840,
      "max": [
        0.4453943371772766,
        0.37097546458244324,
        0.6819952726364136
      ],
      "min": [
        -0.4451662600040436,
        -0.37097546458244324,
        -0.002943098545074463
      ],
      "type": "VEC3"
    },
    {
      "bufferView": 2,
      "byteOffset": 79824,
      "componentType": 5126,
      "count": 840,
      "max": [
        0.9933209419250488,
        0.9933271408081055,
        0.23188701272010803
      ],
      "min": [
        -0.9933209419250488,
        -0.9933271408081055,
        -0.9894916415214539
      ],
      "type": "VEC3"
    },
    {
      "bufferView": 3,
      "byteOffset": 46496,
      "componentType": 5126,
      "count": 840,
      "max": [
        0.9968154430389404,
        0.9958466291427612,
        1.0,
        1.0
      ],
      "min": [
        -0.9968155026435852,
        -0.9958466291427612,
        -1.0,
        -1.0
      ],
      "type": "VEC4"
    },
    {
      "bufferView": 1,
      "byteOffset": 23248,
      "componentType": 5126,
      "count": 840,
      "max": [
        0.9909179210662842,
        0.9955127835273743
      ],
      "min": [
        0.004487198311835527,
        0.004487198311835527
      ],
      "type": "VEC2"
    },
    {
      "bufferView": 0,
      "byteOffset": 53568,
      "componentType": 5125,
      "count": 3024,
      "type": "SCALAR"
    }
  ],
  "asset": {
    "extras": {
      "author": "James.Moore (https://sketchfab.com/James.Moore)",
      "license": "CC-BY-4.0 (http://creativecommons.org/licenses/by/4.0/)",
      "source": "https://sketchfab.com/3d-models/round-table-54102629bec34474aca394044e18a231",
      "title": "Round Table"
    },
    "generator": "Sketchfab-12.65.0",
    "version": "2.0"
  },
  "bufferViews": [
    {
      "buffer": 0,
      "byteLength": 65664,
      "name": "floatBufferViews",
      "target": 34963
    },
    {
      "buffer": 0,
      "byteLength": 29968,
      "byteOffset": 65664,
      "byteStride": 8,
      "name": "floatBufferViews",
      "target": 34962
    },
    {
      "buffer": 0,
      "byteLength": 89904,
      "byteOffset": 95632,
      "byteStride": 12,
      "name": "floatBufferViews",
      "target": 34962
    },
    {
      "buffer": 0,
      "byteLength": 59936,
      "byteOffset": 185536,
      "byteStride": 16,
      "name": "floatBufferViews",
      "target": 34962
    }
  ],
  "buffers": [
    {
      "byteLength": 245472,
      "uri": "scene.bin"
    }
  ],
  "images": [
    {
      "uri": "textures/TopWood_baseColor.png"
    },
    {
      "uri": "textures/TopWood_metallicRoughness.png"
    },
    {
      "uri": "textures/TopWood_normal.png"
    },
    {
      "uri": "textures/LegsWood_baseColor.png"
    },
    {
      "uri": "textures/LegsWood_metallicRoughness.png"
    },
    {
      "uri": "textures/LegsWood_normal.png"
    }
  ],
  "materials": [
    {
      "doubleSided": true,
      "name": "TopWood",
      "normalTexture": {
        "index": 2
      },
      "occlusionTexture": {
        "index": 1
      },
      "pbrMetallicRoughness": {
        "baseColorTexture": {
          "index": 0
        },
        "metallicFactor": 0.0,
        "metallicRoughnessTexture": {
          "index": 1
        }
      }
    },
    {
      "doubleSided": true,
      "name": "LegsWood",
      "normalTexture": {
        "index": 5
      },
      "occlusionTexture": {
        "index": 4
      },
      "pbrMetallicRoughness": {
        "baseColorTexture": {
          "index": 3
        },
        "metallicFactor": 0.0,
        "metallicRoughnessTexture": {
          "index": 4
        }
      }
    }
  ],
  "meshes": [
    {
      "name": "RoundTableA_TopWood_0",
      "primitives": [
        {
          "attributes": {
            "NORMAL": 1,
            "POSITION": 0,
            "TANGENT": 2,
            "TEXCOORD_0": 3
          },
          "indices": 4,
          "material": 0,
          "mode": 4
        }
      ]
    },
    {
      "name": "RoundTableA_LegsWood_0",
      "primitives": [
        {
          "attributes": {
            "NORMAL": 6,
            "POSITION": 5,
            "TANGENT": 7,
            "TEXCOORD_0": 8
          },
          "indices": 9,
          "material": 1,
          "mode": 4
        }
      ]
    }
  ],
  "nodes": [
    {
      "children": [
        1
      ],
      "matrix": [
        1.0,
        0.0,
        0.0,
        0.0,
        0.0,
        2.220446049250313e-16,
        -1.0,
        0.0,
        0.0,
        1.0,
        2.220446049250313e-16,
        0.0,
        0.0,
        0.0,
        0.0,
        1.0
      ],
      "name": "Sketchfab_model"
    },
    {
      "children": [
        2
      ],
      "matrix": [
        1.0,
        0.0,
        0.0,
        0.0,
        0.0,
        0.0,
        1.0,
        0.0,
        0.0,
        -1.0,
        0.0,
        0.0,
        0.0,
        0.0,
        0.0,
        1.0
      ],
      "name": "cbdd09d92957475fa77486f7f5d23e89.fbx"
    },
    {
      "children": [
        3
      ],
      "name": "RootNode"
    },
    {
      "children": [
        4,
        5
      ],
      "matrix": [
        100.0,
        0.0,
        0.0,
        0.0,
        0.0,
        -1.629206793918314e-05,
        -99.99999999999868,
        0.0,
        0.0,
        99.99999999999868,
        -1.629206793918314e-05,
        0.0,
        4.246830940246582e-05,
        0.0,
        0.0,
        1.0
      ],
      "name": "RoundTableA"
    },
    {
      "mesh": 0,
      "name": "RoundTableA_TopWood_0"
    },
    {
      "mesh": 1,
      "name": "RoundTableA_LegsWood_0"
    }
  ],
  "samplers": [
    {
      "magFilter": 9729,
      "minFilter": 9987,
      "wrapS": 10497,
      "wrapT": 10497
    }
  ],
  "scene": 0,
  "scenes": [
    {
      "name": "Sketchfab_Scene",
      "nodes": [
        0
      ]
    }
  ],
  "textures": [
    {
      "sampler": 0,
      "source": 0
    },
    {
      "sampler": 0,
      "source": 1
    },
    {
      "sampler": 0,
      "source": 2
    },
    {
      "sampler": 0,
      "source": 3
    },
    {
      "sampler": 0,
      "source": 4
    },
    {
      "sampler": 0,
      "source": 5
    }
  ]
}
